<?xml version="1.0" encoding="utf-8"?>
<!-- Generator: Adobe Illustrator 23.0.3, SVG Export Plug-In . SVG Version: 6.00 Build 0)  -->
<svg version="1.1" id="Instrukcje" xmlns="http://www.w3.org/2000/svg" xmlns:xlink="http://www.w3.org/1999/xlink" x="0px" y="0px"
	 viewBox="0 0 266.1 62.7" style="enable-background:new 0 0 266.1 62.7;" xml:space="preserve">
<style type="text/css">
	.st0{fill-rule:evenodd;clip-rule:evenodd;fill:#28A9E0;}
	.st1{fill-rule:evenodd;clip-rule:evenodd;fill:#2D3236;}
	.st2{fill-rule:evenodd;clip-rule:evenodd;fill:#215398;}
</style>
<g>
	<path class="st0" d="M181.05,21.1c-0.83,0.03-1.5,0.3-2,0.8c-0.47,0.47-0.75,1.15-0.85,2.05h-5.55c0.03-1.57,0.38-2.93,1.05-4.1
		c0.63-1.2,1.57-2.13,2.8-2.8c1.23-0.67,2.73-1,4.5-1c1.83,0,3.38,0.33,4.65,1c1.27,0.63,2.23,1.5,2.9,2.6c0.67,1.07,1,2.25,1,3.55
		c0,0.77-0.17,1.53-0.5,2.3c-0.33,0.77-0.85,1.62-1.55,2.55c-0.7,0.93-1.62,2.07-2.75,3.4l-3.15,3.8h8.15v4.7h-16.6V37.2l7.1-8.65
		c0.7-0.8,1.3-1.5,1.8-2.1c0.5-0.6,0.88-1.13,1.15-1.6c0.27-0.47,0.4-0.95,0.4-1.45c0-0.57-0.2-1.08-0.6-1.55
		C182.63,21.38,181.98,21.13,181.05,21.1z M66.5,29.95l-13.7-6V14.9l24,10.5L66.5,29.95z M80,26.75v9.1L52.8,47.7v-9.05L80,26.75z
		 M27.2,14.9v9.05l-13.7,6L3.15,25.4L27.2,14.9z M27.2,47.7L0,35.85v-9.1l27.2,11.9V47.7z"/>
	<path class="st1" d="M141.3,19.95c0.7,1,1.13,2.28,1.3,3.85h-5.85c-0.13-0.87-0.5-1.57-1.1-2.1c-0.63-0.57-1.53-0.85-2.7-0.85
		c-1,0-1.8,0.2-2.4,0.6c-0.6,0.4-0.9,0.98-0.9,1.75c0,0.63,0.22,1.12,0.65,1.45c0.47,0.33,1.13,0.58,2,0.75l3.3,0.75
		c1.43,0.3,2.67,0.72,3.7,1.25c1.07,0.53,1.88,1.23,2.45,2.1c0.57,0.9,0.87,2.02,0.9,3.35c-0.03,1.57-0.45,2.92-1.25,4.05
		c-0.8,1.13-1.92,2-3.35,2.6c-1.47,0.6-3.17,0.92-5.1,0.95c-1.8,0-3.45-0.28-4.95-0.85c-1.53-0.6-2.8-1.5-3.8-2.7
		c-1-1.23-1.6-2.82-1.8-4.75h5.8c0.2,1.07,0.72,1.88,1.55,2.45c0.87,0.57,1.98,0.87,3.35,0.9c1.1-0.03,1.92-0.22,2.45-0.55
		c0.57-0.37,0.85-0.88,0.85-1.55c0.03-0.4-0.13-0.78-0.5-1.15c-0.33-0.37-0.98-0.65-1.95-0.85l-3.85-0.85
		c-2.3-0.5-4.02-1.3-5.15-2.4c-1.1-1.13-1.65-2.63-1.65-4.5c0-1.57,0.4-2.92,1.2-4.05c0.77-1.13,1.85-2.02,3.25-2.65
		c1.37-0.6,2.98-0.9,4.85-0.9c0.97-0.03,1.98,0.07,3.05,0.3c1.1,0.23,2.15,0.63,3.15,1.2C139.8,18.12,140.63,18.92,141.3,19.95z
		 M147.7,16.55h9.45c2.47,0.03,4.63,0.53,6.5,1.5c1.9,0.97,3.38,2.33,4.45,4.1c1.1,1.73,1.65,3.75,1.65,6.05
		c0,2.33-0.55,4.37-1.65,6.1c-1.07,1.77-2.55,3.15-4.45,4.15c-1.87,0.97-4.03,1.47-6.5,1.5h-9.45V16.55z M157.15,21.8h-3.6v12.95
		h3.6c1.27-0.03,2.4-0.33,3.4-0.9c1.03-0.57,1.83-1.33,2.4-2.3c0.6-1,0.9-2.12,0.9-3.35c0-1.23-0.3-2.33-0.9-3.3
		c-0.57-0.97-1.37-1.72-2.4-2.25C159.55,22.08,158.42,21.8,157.15,21.8z M118.1,20.55c0.8,1.3,1.2,2.82,1.2,4.55
		c0,1.83-0.43,3.42-1.3,4.75c-0.83,1.33-2.02,2.35-3.55,3.05c-1.53,0.73-3.38,1.1-5.55,1.1h-3.1v5.95h-5.85v-23.4h9.45
		c2.03,0,3.78,0.35,5.25,1.05C116.15,18.3,117.3,19.28,118.1,20.55z M109.25,21.7h-3.45v7.2h3.45c1.3,0,2.33-0.33,3.1-1
		c0.73-0.67,1.12-1.6,1.15-2.8c-0.03-1.07-0.42-1.9-1.15-2.5C111.58,22,110.55,21.7,109.25,21.7z M195.75,21.95
		c1.07-1.83,2.53-3.27,4.4-4.3c1.87-1.03,3.98-1.57,6.35-1.6c2.13,0.03,4.03,0.47,5.7,1.3c1.67,0.87,3.03,2.05,4.1,3.55
		c1.03,1.53,1.67,3.32,1.9,5.35h-5.95c-0.33-1.47-0.98-2.62-1.95-3.45c-1-0.87-2.28-1.3-3.85-1.3c-1.27,0-2.38,0.3-3.35,0.9
		c-0.97,0.57-1.73,1.35-2.3,2.35c-0.53,1.03-0.8,2.2-0.8,3.5c0,1.3,0.27,2.47,0.8,3.5c0.57,1,1.33,1.78,2.3,2.35
		c0.97,0.6,2.08,0.9,3.35,0.9c1.57,0,2.85-0.43,3.85-1.3c0.97-0.83,1.62-1.98,1.95-3.45h5.95c-0.23,2.03-0.87,3.82-1.9,5.35
		c-1.07,1.5-2.43,2.68-4.1,3.55c-1.67,0.83-3.57,1.27-5.7,1.3c-2.37-0.03-4.48-0.57-6.35-1.6c-1.87-1.03-3.33-2.47-4.4-4.3
		c-1.07-1.83-1.62-3.93-1.65-6.3C194.13,25.88,194.68,23.78,195.75,21.95z M246.75,23.65c0-1.57,0.4-2.92,1.2-4.05
		c0.77-1.13,1.85-2.02,3.25-2.65c1.37-0.6,2.98-0.9,4.85-0.9c0.97-0.03,1.98,0.07,3.05,0.3c1.1,0.23,2.15,0.63,3.15,1.2
		c1,0.57,1.83,1.37,2.5,2.4c0.7,1,1.13,2.28,1.3,3.85h-5.85c-0.13-0.87-0.5-1.57-1.1-2.1c-0.63-0.57-1.53-0.85-2.7-0.85
		c-1,0-1.8,0.2-2.4,0.6c-0.6,0.4-0.9,0.98-0.9,1.75c0,0.63,0.22,1.12,0.65,1.45c0.47,0.33,1.13,0.58,2,0.75l3.3,0.75
		c1.43,0.3,2.67,0.72,3.7,1.25c1.07,0.53,1.88,1.23,2.45,2.1c0.57,0.9,0.87,2.02,0.9,3.35c-0.03,1.57-0.45,2.92-1.25,4.05
		c-0.8,1.13-1.92,2-3.35,2.6c-1.47,0.6-3.17,0.92-5.1,0.95c-1.8,0-3.45-0.28-4.95-0.85c-1.53-0.6-2.8-1.5-3.8-2.7
		c-1-1.23-1.6-2.82-1.8-4.75h5.8c0.2,1.07,0.72,1.88,1.55,2.45c0.87,0.57,1.98,0.87,3.35,0.9c1.1-0.03,1.92-0.22,2.45-0.55
		c0.57-0.37,0.85-0.88,0.85-1.55c0.03-0.4-0.13-0.78-0.5-1.15c-0.33-0.37-0.98-0.65-1.95-0.85l-3.85-0.85
		c-2.3-0.5-4.02-1.3-5.15-2.4C247.3,27.02,246.75,25.52,246.75,23.65z M222.95,23.65c0-1.57,0.4-2.92,1.2-4.05
		c0.77-1.13,1.85-2.02,3.25-2.65c1.37-0.6,2.98-0.9,4.85-0.9c0.97-0.03,1.98,0.07,3.05,0.3c1.1,0.23,2.15,0.63,3.15,1.2
		c1,0.57,1.83,1.37,2.5,2.4c0.7,1,1.13,2.28,1.3,3.85h-5.85c-0.13-0.87-0.5-1.57-1.1-2.1c-0.63-0.57-1.53-0.85-2.7-0.85
		c-1,0-1.8,0.2-2.4,0.6c-0.6,0.4-0.9,0.98-0.9,1.75c0,0.63,0.22,1.12,0.65,1.45c0.47,0.33,1.13,0.58,2,0.75l3.3,0.75
		c1.43,0.3,2.67,0.72,3.7,1.25c1.07,0.53,1.88,1.23,2.45,2.1c0.57,0.9,0.87,2.02,0.9,3.35c-0.03,1.57-0.45,2.92-1.25,4.05
		c-0.8,1.13-1.92,2-3.35,2.6c-1.47,0.6-3.17,0.92-5.1,0.95c-1.8,0-3.45-0.28-4.95-0.85c-1.53-0.6-2.8-1.5-3.8-2.7
		c-1-1.23-1.6-2.82-1.8-4.75h5.8c0.2,1.07,0.72,1.88,1.55,2.45c0.87,0.57,1.98,0.87,3.35,0.9c1.1-0.03,1.92-0.22,2.45-0.55
		c0.57-0.37,0.85-0.88,0.85-1.55c0.03-0.4-0.13-0.78-0.5-1.15c-0.33-0.37-0.98-0.65-1.95-0.85l-3.85-0.85
		c-2.3-0.5-4.02-1.3-5.15-2.4C223.5,27.02,222.95,25.52,222.95,23.65z"/>
	<path class="st2" d="M39.6,0l17.85,7.75l-17.85,7.8l-17.85-7.8L39.6,0z M39.6,47.15l17.85,7.75L39.6,62.7l-17.85-7.8L39.6,47.15z
		 M21.75,31.35L39.6,23.6l17.85,7.75l-17.85,7.8L21.75,31.35z"/>
</g>
</svg>
